<svg version="1.1" id="Layer_1" xmlns="http://www.w3.org/2000/svg" xmlns:xlink="http://www.w3.org/1999/xlink" x="0px" y="0px"
	 width="100%" viewBox="0 0 2560 2560" enable-background="new 0 0 2560 2560" xml:space="preserve">
<path fill="#FFFFFF" opacity="1.000000" stroke="none" 
	d="
M1506.000000,2562.000000 
	C1004.000000,2562.000000 503.000000,2562.000000 2.000000,2562.000000 
	C2.000000,1708.666626 2.000000,855.333313 2.000000,2.000000 
	C855.333313,2.000000 1708.666626,2.000000 2562.000000,2.000000 
	C2562.000000,855.333313 2562.000000,1708.666626 2562.000000,2562.000000 
	C2210.333252,2562.000000 1858.666626,2562.000000 1506.000000,2562.000000 
M2400.844482,1411.317139 
	C2400.458252,1410.221069 2400.072021,1409.125000 2399.615967,1406.467651 
	C2397.017822,1398.211426 2395.177002,1389.618286 2391.682861,1381.760498 
	C2380.044678,1355.586914 2367.812500,1329.677002 2355.808350,1303.666016 
	C2311.699463,1208.089478 2267.581787,1112.516724 2223.484375,1016.934875 
	C2181.199951,925.283081 2138.955322,833.612854 2096.656494,741.967773 
	C2070.409912,685.102051 2044.161499,628.237122 2017.780029,571.434082 
	C2006.114380,546.316589 2005.963745,546.386597 2005.963745,518.946411 
	C2005.963745,511.055237 2005.963745,503.164062 2005.963745,494.221649 
	C2010.822021,494.221649 2014.400757,494.222595 2017.979370,494.221466 
	C2058.312500,494.208710 2098.645752,494.113495 2138.978516,494.209595 
	C2169.206787,494.281616 2198.017090,470.617432 2202.060059,438.216644 
	C2206.979980,398.789246 2181.592529,371.766693 2151.768799,364.726135 
	C2145.079346,363.146912 2137.848633,363.568146 2130.866699,363.563690 
	C2029.200439,363.499054 1927.534058,363.518433 1825.867798,363.518280 
	C1675.868408,363.518036 1525.868896,363.540375 1375.869507,363.460205 
	C1367.368042,363.455658 1358.867188,362.612030 1349.548096,362.115326 
	C1349.548096,357.009735 1349.547974,353.063843 1349.547974,349.117950 
	C1349.547729,290.451508 1349.594238,231.784988 1349.479736,173.118774 
	C1349.467529,166.824860 1349.103149,160.418762 1347.901855,154.259842 
	C1342.944824,128.847000 1327.986450,111.620567 1303.428101,103.704147 
	C1278.812256,95.769188 1256.679810,101.331696 1237.883789,119.056030 
	C1224.325562,131.841202 1217.935669,147.890167 1217.928101,166.476852 
	C1217.902954,228.143265 1217.916626,289.809692 1217.877930,351.476105 
	C1217.875488,355.298157 1217.550293,359.120056 1217.348877,363.518250 
	C1211.766602,363.518250 1207.467285,363.518250 1203.168091,363.518250 
	C949.835754,363.518250 696.503357,363.518097 443.171021,363.519287 
	C438.504395,363.519318 433.834595,363.650787 429.171722,363.522430 
	C413.430573,363.089203 399.542694,368.348877 387.752045,378.329071 
	C368.420929,394.691986 359.576996,416.570190 364.877533,440.805328 
	C373.378082,479.671570 404.916595,495.019012 432.510223,494.427002 
	C471.492096,493.590759 510.505402,494.219299 549.505249,494.221588 
	C553.078369,494.221802 556.651428,494.221649 560.818054,494.221649 
	C561.085327,498.178925 561.433350,501.085205 561.451050,503.993469 
	C561.518005,514.993042 561.839844,526.010437 561.318237,536.985596 
	C561.073425,542.137756 559.832153,547.508911 557.813416,552.258423 
	C552.603088,564.516479 546.674927,576.468201 541.092590,588.569519 
	C506.346008,663.892517 471.628784,739.229126 436.875092,814.548828 
	C415.659515,860.528198 394.367249,906.472107 373.160278,952.455444 
	C331.026306,1043.815063 288.938782,1135.196167 246.809769,1226.557983 
	C222.676315,1278.894409 198.492523,1331.207520 174.347076,1383.538330 
	C169.821213,1393.347168 167.154266,1403.531494 167.762558,1414.481812 
	C168.519241,1428.103271 168.836914,1441.750122 169.671310,1455.366089 
	C171.843765,1490.817139 179.529205,1525.226196 190.795059,1558.772461 
	C217.371201,1637.908325 262.136261,1705.068848 324.983612,1760.085327 
	C369.894379,1799.400269 420.497925,1829.053345 476.973175,1848.377075 
	C535.596069,1868.435669 595.764282,1876.879639 657.796814,1872.405884 
	C694.872131,1869.732056 731.123169,1863.323853 766.388977,1851.875488 
	C843.047791,1826.989136 908.899902,1785.052734 963.765930,1725.838013 
	C1001.786011,1684.804077 1031.284302,1638.432129 1052.426636,1586.721802 
	C1075.005005,1531.499023 1086.064331,1473.985229 1086.226685,1414.340820 
	C1086.251587,1405.212158 1084.859985,1396.417236 1081.078857,1388.085938 
	C1071.855957,1367.764038 1062.642944,1347.436890 1053.304077,1327.168091 
	C1025.702759,1267.263184 998.054626,1207.379517 970.401917,1147.498169 
	C924.733459,1048.604126 879.035950,949.723572 833.371338,850.827759 
	C789.242859,755.258850 745.265625,659.619751 700.876221,564.172241 
	C695.001648,551.540588 690.932373,539.126648 692.065186,524.996826 
	C692.853455,515.163391 692.216919,505.215759 692.216919,494.857849 
	C867.923218,494.857849 1042.374268,494.857849 1216.805298,494.857849 
	C1217.270020,496.366852 1217.802734,497.288818 1217.802856,498.210815 
	C1217.868652,1019.541504 1217.899170,1540.872192 1217.910522,2062.202881 
	C1217.910522,2064.190674 1217.649414,2066.180420 1217.453125,2068.163574 
	C1217.425903,2068.439453 1217.076660,2068.689209 1216.861816,2068.938721 
	C1216.646484,2069.188721 1216.412964,2069.423340 1215.585205,2070.309082 
	C1212.213745,2070.309082 1208.238037,2070.309082 1204.262207,2070.309082 
	C1123.929199,2070.309326 1043.595459,2070.507080 963.263611,2070.187500 
	C939.591797,2070.093262 920.336914,2077.866699 903.456665,2094.884033 
	C819.652466,2179.367920 735.321228,2263.328857 651.177734,2347.476074 
	C649.056824,2349.597412 646.938965,2351.722900 644.861206,2353.886475 
	C615.522705,2384.434570 622.515625,2438.977051 665.547913,2458.822266 
	C675.831482,2463.564941 686.602417,2464.433105 697.707092,2464.431641 
	C1088.038940,2464.375000 1478.370850,2464.384277 1868.702637,2464.382812 
	C1871.369263,2464.382812 1874.036865,2464.407227 1876.702393,2464.347412 
	C1905.648071,2463.696289 1930.853516,2443.897949 1937.952026,2415.795410 
	C1944.310547,2390.622559 1937.056396,2369.083496 1919.290649,2350.791992 
	C1908.376465,2339.555176 1897.168335,2328.603516 1886.090332,2317.525635 
	C1811.136841,2242.572998 1736.140991,2167.662598 1661.271606,2092.626221 
	C1649.303345,2080.631104 1635.433838,2072.828613 1618.529785,2070.877930 
	C1613.915161,2070.345215 1609.223267,2070.333984 1604.566895,2070.332275 
	C1523.567261,2070.301514 1442.567505,2070.315674 1361.567871,2070.290039 
	C1357.738037,2070.288818 1353.908203,2070.010010 1350.287842,2069.868408 
	C1348.004028,2046.213745 1349.077271,502.317657 1351.244507,495.065704 
	C1366.156494,493.108398 1866.645020,493.851624 1874.329346,496.047668 
	C1874.329346,509.469727 1874.114868,523.113586 1874.422485,536.745789 
	C1874.569946,543.286255 1873.052246,549.161865 1870.348267,555.010925 
	C1829.808960,642.705322 1789.355835,730.439514 1748.845337,818.147278 
	C1722.443237,875.309814 1695.943726,932.427246 1669.555298,989.596008 
	C1631.021851,1073.076660 1592.564819,1156.592529 1554.044189,1240.078979 
	C1532.550049,1286.663574 1511.009766,1333.226807 1489.453369,1379.782593 
	C1483.643555,1392.329956 1479.756958,1405.286621 1480.498413,1419.298584 
	C1480.973389,1428.274292 1481.251465,1437.269897 1482.064575,1446.216064 
	C1483.293579,1459.738403 1483.823730,1473.453979 1486.602173,1486.677490 
	C1491.658569,1510.742798 1496.722656,1534.971436 1504.320557,1558.305664 
	C1523.310425,1616.625977 1553.369141,1668.886841 1593.746704,1715.266235 
	C1631.389526,1758.504272 1675.424927,1793.619263 1725.918213,1820.476440 
	C1787.143677,1853.041748 1852.742554,1870.244995 1921.932617,1873.469116 
	C1957.993652,1875.149414 1993.826904,1872.042114 2029.200317,1864.955566 
	C2077.211426,1855.337036 2122.630859,1838.611450 2165.355713,1814.461426 
	C2215.867676,1785.909546 2259.404053,1749.106445 2296.089355,1704.343384 
	C2343.786377,1646.144287 2374.905762,1579.878174 2390.282227,1506.221313 
	C2396.768555,1475.151123 2399.470459,1443.685425 2400.844482,1411.317139 
z"/>
<path fill="#FF7B89" opacity="1.000000" stroke="none" 
	d="
M2400.089844,1412.003662 
	C2399.470459,1443.685425 2396.768555,1475.151123 2390.282227,1506.221313 
	C2374.905762,1579.878174 2343.786377,1646.144287 2296.089355,1704.343384 
	C2259.404053,1749.106445 2215.867676,1785.909546 2165.355713,1814.461426 
	C2122.630859,1838.611450 2077.211426,1855.337036 2029.200317,1864.955566 
	C1993.826904,1872.042114 1957.993652,1875.149414 1921.932617,1873.469116 
	C1852.742554,1870.244995 1787.143677,1853.041748 1725.918213,1820.476440 
	C1675.424927,1793.619263 1631.389526,1758.504272 1593.746704,1715.266235 
	C1553.369141,1668.886841 1523.310425,1616.625977 1504.320557,1558.305664 
	C1496.722656,1534.971436 1491.658569,1510.742798 1486.602173,1486.677490 
	C1483.823730,1473.453979 1483.293579,1459.738403 1482.064575,1446.216064 
	C1481.251465,1437.269897 1480.973389,1428.274292 1480.498413,1419.298584 
	C1479.756958,1405.286621 1483.643555,1392.329956 1489.453369,1379.782593 
	C1511.009766,1333.226807 1532.550049,1286.663574 1554.044189,1240.078979 
	C1592.564819,1156.592529 1631.021851,1073.076660 1669.555298,989.596008 
	C1695.943726,932.427246 1722.443237,875.309814 1748.845337,818.147278 
	C1789.355835,730.439514 1829.808960,642.705322 1870.348267,555.010925 
	C1873.052246,549.161865 1874.569946,543.286255 1874.422485,536.745789 
	C1874.114868,523.113586 1874.329346,509.469727 1874.329346,496.047668 
	C1866.645020,493.851624 1366.156494,493.108398 1351.244507,495.065704 
	C1349.077271,502.317657 1348.004028,2046.213745 1350.287842,2069.868408 
	C1353.908203,2070.010010 1357.738037,2070.288818 1361.567871,2070.290039 
	C1442.567505,2070.315674 1523.567261,2070.301514 1604.566895,2070.332275 
	C1609.223267,2070.333984 1613.915161,2070.345215 1618.529785,2070.877930 
	C1635.433838,2072.828613 1649.303345,2080.631104 1661.271606,2092.626221 
	C1736.140991,2167.662598 1811.136841,2242.572998 1886.090332,2317.525635 
	C1897.168335,2328.603516 1908.376465,2339.555176 1919.290649,2350.791992 
	C1937.056396,2369.083496 1944.310547,2390.622559 1937.952026,2415.795410 
	C1930.853516,2443.897949 1905.648071,2463.696289 1876.702393,2464.347412 
	C1874.036865,2464.407227 1871.369263,2464.382812 1868.702637,2464.382812 
	C1478.370850,2464.384277 1088.038940,2464.375000 697.707092,2464.431641 
	C686.602417,2464.433105 675.831482,2463.564941 665.547913,2458.822266 
	C622.515625,2438.977051 615.522705,2384.434570 644.861206,2353.886475 
	C646.938965,2351.722900 649.056824,2349.597412 651.177734,2347.476074 
	C735.321228,2263.328857 819.652466,2179.367920 903.456665,2094.884033 
	C920.336914,2077.866699 939.591797,2070.093262 963.263611,2070.187500 
	C1043.595459,2070.507080 1123.929199,2070.309326 1204.262207,2070.309082 
	C1208.238037,2070.309082 1212.213745,2070.309082 1215.585205,2070.309082 
	C1216.412964,2069.423340 1216.646484,2069.188721 1216.861816,2068.938721 
	C1217.076660,2068.689209 1217.425903,2068.439453 1217.453125,2068.163574 
	C1217.649414,2066.180420 1217.910522,2064.190674 1217.910522,2062.202881 
	C1217.899170,1540.872192 1217.868652,1019.541504 1217.802856,498.210815 
	C1217.802734,497.288818 1217.270020,496.366852 1216.805298,494.857849 
	C1042.374268,494.857849 867.923218,494.857849 692.216919,494.857849 
	C692.216919,505.215759 692.853455,515.163391 692.065186,524.996826 
	C690.932373,539.126648 695.001648,551.540588 700.876221,564.172241 
	C745.265625,659.619751 789.242859,755.258850 833.371338,850.827759 
	C879.035950,949.723572 924.733459,1048.604126 970.401917,1147.498169 
	C998.054626,1207.379517 1025.702759,1267.263184 1053.304077,1327.168091 
	C1062.642944,1347.436890 1071.855957,1367.764038 1081.078857,1388.085938 
	C1084.859985,1396.417236 1086.251587,1405.212158 1086.226685,1414.340820 
	C1086.064331,1473.985229 1075.005005,1531.499023 1052.426636,1586.721802 
	C1031.284302,1638.432129 1001.786011,1684.804077 963.765930,1725.838013 
	C908.899902,1785.052734 843.047791,1826.989136 766.388977,1851.875488 
	C731.123169,1863.323853 694.872131,1869.732056 657.796814,1872.405884 
	C595.764282,1876.879639 535.596069,1868.435669 476.973175,1848.377075 
	C420.497925,1829.053345 369.894379,1799.400269 324.983612,1760.085327 
	C262.136261,1705.068848 217.371201,1637.908325 190.795059,1558.772461 
	C179.529205,1525.226196 171.843765,1490.817139 169.671310,1455.366089 
	C168.836914,1441.750122 168.519241,1428.103271 167.762558,1414.481812 
	C167.154266,1403.531494 169.821213,1393.347168 174.347076,1383.538330 
	C198.492523,1331.207520 222.676315,1278.894409 246.809769,1226.557983 
	C288.938782,1135.196167 331.026306,1043.815063 373.160278,952.455444 
	C394.367249,906.472107 415.659515,860.528198 436.875092,814.548828 
	C471.628784,739.229126 506.346008,663.892517 541.092590,588.569519 
	C546.674927,576.468201 552.603088,564.516479 557.813416,552.258423 
	C559.832153,547.508911 561.073425,542.137756 561.318237,536.985596 
	C561.839844,526.010437 561.518005,514.993042 561.451050,503.993469 
	C561.433350,501.085205 561.085327,498.178925 560.818054,494.221649 
	C556.651428,494.221649 553.078369,494.221802 549.505249,494.221588 
	C510.505402,494.219299 471.492096,493.590759 432.510223,494.427002 
	C404.916595,495.019012 373.378082,479.671570 364.877533,440.805328 
	C359.576996,416.570190 368.420929,394.691986 387.752045,378.329071 
	C399.542694,368.348877 413.430573,363.089203 429.171722,363.522430 
	C433.834595,363.650787 438.504395,363.519318 443.171021,363.519287 
	C696.503357,363.518097 949.835754,363.518250 1203.168091,363.518250 
	C1207.467285,363.518250 1211.766602,363.518250 1217.348877,363.518250 
	C1217.550293,359.120056 1217.875488,355.298157 1217.877930,351.476105 
	C1217.916626,289.809692 1217.902954,228.143265 1217.928101,166.476852 
	C1217.935669,147.890167 1224.325562,131.841202 1237.883789,119.056030 
	C1256.679810,101.331696 1278.812256,95.769188 1303.428101,103.704147 
	C1327.986450,111.620567 1342.944824,128.847000 1347.901855,154.259842 
	C1349.103149,160.418762 1349.467529,166.824860 1349.479736,173.118774 
	C1349.594238,231.784988 1349.547729,290.451508 1349.547974,349.117950 
	C1349.547974,353.063843 1349.548096,357.009735 1349.548096,362.115326 
	C1358.867188,362.612030 1367.368042,363.455658 1375.869507,363.460205 
	C1525.868896,363.540375 1675.868408,363.518036 1825.867798,363.518280 
	C1927.534058,363.518433 2029.200439,363.499054 2130.866699,363.563690 
	C2137.848633,363.568146 2145.079346,363.146912 2151.768799,364.726135 
	C2181.592529,371.766693 2206.979980,398.789246 2202.060059,438.216644 
	C2198.017090,470.617432 2169.206787,494.281616 2138.978516,494.209595 
	C2098.645752,494.113495 2058.312500,494.208710 2017.979370,494.221466 
	C2014.400757,494.222595 2010.822021,494.221649 2005.963745,494.221649 
	C2005.963745,503.164062 2005.963745,511.055237 2005.963745,518.946411 
	C2005.963745,546.386597 2006.114380,546.316589 2017.780029,571.434082 
	C2044.161499,628.237122 2070.409912,685.102051 2096.656494,741.967773 
	C2138.955322,833.612854 2181.199951,925.283081 2223.484375,1016.934875 
	C2267.581787,1112.516724 2311.699463,1208.089478 2355.808350,1303.666016 
	C2367.812500,1329.677002 2380.044678,1355.586914 2391.682861,1381.760498 
	C2395.177002,1389.618286 2397.017822,1398.211426 2399.273682,1407.582031 
	C2399.317627,1409.798950 2399.703857,1410.901245 2400.089844,1412.003662 
M361.141846,1292.144775 
	C353.226440,1310.559570 343.637817,1328.262573 336.237640,1347.789551 
	C530.454651,1347.789551 723.304810,1347.789551 916.169189,1347.789551 
	C915.791931,1340.038330 632.633118,728.870544 626.491943,718.691467 
	C625.058716,721.220093 623.610901,723.393677 622.529968,725.736572 
	C584.311523,808.574707 546.153931,891.441040 507.931854,974.277588 
	C459.246002,1079.791748 410.511810,1185.283691 361.141846,1292.144775 
M1659.733643,1324.711304 
	C1656.460083,1332.117065 1652.158325,1339.143311 1650.418701,1347.361816 
	C1670.524536,1349.388916 2222.251709,1348.500854 2230.362305,1346.303101 
	C2229.100830,1343.227173 2227.976318,1340.192871 2226.631348,1337.259644 
	C2221.632812,1326.358398 2216.545410,1315.498047 2211.520996,1304.608643 
	C2176.215088,1228.086548 2140.925537,1151.556763 2105.611328,1075.038452 
	C2084.813477,1029.973999 2063.950195,984.939758 2043.169922,939.867249 
	C2010.257935,868.481201 1977.400391,797.070068 1944.457275,725.698425 
	C1943.472656,723.565247 1941.789551,721.754395 1939.627563,718.631042 
	C1936.331177,725.524231 1933.699097,730.864014 1931.205078,736.267517 
	C1896.309326,811.876160 1861.440308,887.497192 1826.547852,963.107361 
	C1805.471924,1008.777649 1784.350464,1054.427002 1763.277710,1100.098755 
	C1728.948608,1174.502075 1694.642456,1248.916016 1659.733643,1324.711304 
M925.483093,1550.394409 
	C935.279541,1527.962524 943.904541,1505.175049 947.827637,1480.758179 
	C931.522888,1478.646362 313.489349,1479.381836 306.074982,1481.493774 
	C306.401978,1483.690430 306.426575,1486.046875 307.122223,1488.185059 
	C313.086823,1506.517822 317.911713,1525.348267 325.442657,1543.022217 
	C356.693787,1616.363770 408.515381,1671.156128 479.400116,1707.156250 
	C541.760071,1738.826782 608.035583,1748.902832 677.330811,1738.218140 
	C742.765198,1728.128662 799.652405,1700.104126 848.534058,1655.873657 
	C881.026001,1626.473755 906.233459,1591.471802 925.483093,1550.394409 
M1701.000000,1479.760986 
	C1674.112793,1479.760986 1647.225586,1479.760986 1619.391724,1479.760986 
	C1620.077637,1484.145508 1620.338989,1487.088257 1621.012451,1489.933472 
	C1633.453491,1542.495605 1657.400269,1589.326294 1693.127441,1629.681641 
	C1752.612305,1696.872681 1827.577759,1734.246704 1916.974854,1741.469360 
	C1960.544678,1744.989502 2003.417114,1739.443359 2044.905029,1725.193970 
	C2099.905762,1706.303345 2146.891357,1675.305542 2185.612549,1631.761230 
	C2218.020508,1595.316528 2241.098877,1553.727661 2255.158203,1507.132080 
	C2257.773193,1498.466309 2261.271729,1489.772583 2260.084473,1479.760620 
	C2074.182129,1479.760620 1888.591064,1479.760620 1701.000000,1479.760986 
M989.000000,2333.674072 
	C1229.958374,2333.583740 1470.916748,2333.493164 1711.875122,2333.384277 
	C1712.145874,2333.384033 1712.464844,2333.152100 1712.674561,2332.941895 
	C1712.902954,2332.712891 1713.030151,2332.383057 1713.631348,2331.380127 
	C1711.619751,2329.196289 1709.509766,2326.737061 1707.226196,2324.451416 
	C1668.593140,2285.785156 1629.872192,2247.206299 1591.376221,2208.404053 
	C1586.803589,2203.795166 1582.211182,2201.855957 1575.660645,2201.861572 
	C1381.021973,2202.026367 1186.383057,2202.024414 991.744385,2201.868164 
	C985.208557,2201.862793 980.603210,2203.799805 976.021545,2208.419434 
	C937.531616,2247.227295 898.810364,2285.806152 860.173401,2324.468262 
	C857.941101,2326.701904 855.837097,2329.063965 853.673462,2331.366211 
	C853.973816,2332.135498 854.274170,2332.904541 854.574524,2333.673828 
	C898.716370,2333.673828 942.858154,2333.673828 989.000000,2333.674072 
z"/>
<path fill="#FFB4BC" opacity="1.000000" stroke="none" 
	d="
M2400.467285,1411.660400 
	C2399.703857,1410.901245 2399.317627,1409.798950 2399.308594,1408.362671 
	C2400.072021,1409.125000 2400.458252,1410.221069 2400.467285,1411.660400 
z"/>
<path fill="#FFFFFF" opacity="1.000000" stroke="none" 
	d="
M361.470154,1291.464966 
	C410.511810,1185.283691 459.246002,1079.791748 507.931854,974.277588 
	C546.153931,891.441040 584.311523,808.574707 622.529968,725.736572 
	C623.610901,723.393677 625.058716,721.220093 626.491943,718.691467 
	C632.633118,728.870544 915.791931,1340.038330 916.169189,1347.789551 
	C723.304810,1347.789551 530.454651,1347.789551 336.237640,1347.789551 
	C343.637817,1328.262573 353.226440,1310.559570 361.470154,1291.464966 
z"/>
<path fill="#FFFFFF" opacity="1.000000" stroke="none" 
	d="
M1660.030029,1324.018311 
	C1694.642456,1248.916016 1728.948608,1174.502075 1763.277710,1100.098755 
	C1784.350464,1054.427002 1805.471924,1008.777649 1826.547852,963.107361 
	C1861.440308,887.497192 1896.309326,811.876160 1931.205078,736.267517 
	C1933.699097,730.864014 1936.331177,725.524231 1939.627563,718.631042 
	C1941.789551,721.754395 1943.472656,723.565247 1944.457275,725.698425 
	C1977.400391,797.070068 2010.257935,868.481201 2043.169922,939.867249 
	C2063.950195,984.939758 2084.813477,1029.973999 2105.611328,1075.038452 
	C2140.925537,1151.556763 2176.215088,1228.086548 2211.520996,1304.608643 
	C2216.545410,1315.498047 2221.632812,1326.358398 2226.631348,1337.259644 
	C2227.976318,1340.192871 2229.100830,1343.227173 2230.362305,1346.303101 
	C2222.251709,1348.500854 1670.524536,1349.388916 1650.418701,1347.361816 
	C1652.158325,1339.143311 1656.460083,1332.117065 1660.030029,1324.018311 
z"/>
<path fill="#FFFFFF" opacity="1.000000" stroke="none" 
	d="
M925.159302,1551.077271 
	C906.233459,1591.471802 881.026001,1626.473755 848.534058,1655.873657 
	C799.652405,1700.104126 742.765198,1728.128662 677.330811,1738.218140 
	C608.035583,1748.902832 541.760071,1738.826782 479.400116,1707.156250 
	C408.515381,1671.156128 356.693787,1616.363770 325.442657,1543.022217 
	C317.911713,1525.348267 313.086823,1506.517822 307.122223,1488.185059 
	C306.426575,1486.046875 306.401978,1483.690430 306.074982,1481.493774 
	C313.489349,1479.381836 931.522888,1478.646362 947.827637,1480.758179 
	C943.904541,1505.175049 935.279541,1527.962524 925.159302,1551.077271 
z"/>
<path fill="#FFFFFF" opacity="1.000000" stroke="none" 
	d="
M1702.000000,1479.760742 
	C1888.591064,1479.760620 2074.182129,1479.760620 2260.084473,1479.760620 
	C2261.271729,1489.772583 2257.773193,1498.466309 2255.158203,1507.132080 
	C2241.098877,1553.727661 2218.020508,1595.316528 2185.612549,1631.761230 
	C2146.891357,1675.305542 2099.905762,1706.303345 2044.905029,1725.193970 
	C2003.417114,1739.443359 1960.544678,1744.989502 1916.974854,1741.469360 
	C1827.577759,1734.246704 1752.612305,1696.872681 1693.127441,1629.681641 
	C1657.400269,1589.326294 1633.453491,1542.495605 1621.012451,1489.933472 
	C1620.338989,1487.088257 1620.077637,1484.145508 1619.391724,1479.760986 
	C1647.225586,1479.760986 1674.112793,1479.760986 1702.000000,1479.760742 
z"/>
<path fill="#FFFFFF" opacity="1.000000" stroke="none" 
	d="
M988.000000,2333.673828 
	C942.858154,2333.673828 898.716370,2333.673828 854.574524,2333.673828 
	C854.274170,2332.904541 853.973816,2332.135498 853.673462,2331.366211 
	C855.837097,2329.063965 857.941101,2326.701904 860.173401,2324.468262 
	C898.810364,2285.806152 937.531616,2247.227295 976.021545,2208.419434 
	C980.603210,2203.799805 985.208557,2201.862793 991.744385,2201.868164 
	C1186.383057,2202.024414 1381.021973,2202.026367 1575.660645,2201.861572 
	C1582.211182,2201.855957 1586.803589,2203.795166 1591.376221,2208.404053 
	C1629.872192,2247.206299 1668.593140,2285.785156 1707.226196,2324.451416 
	C1709.509766,2326.737061 1711.619751,2329.196289 1713.631348,2331.380127 
	C1713.030151,2332.383057 1712.902954,2332.712891 1712.674561,2332.941895 
	C1712.464844,2333.152100 1712.145874,2333.384033 1711.875122,2333.384277 
	C1470.916748,2333.493164 1229.958374,2333.583740 988.000000,2333.673828 
z"/>
</svg>